<svg width="64" height="64" viewBox="0 0 64 64" fill="none" xmlns="http://www.w3.org/2000/svg">
<rect width="64" height="64" fill="#1C1C1C"/>
<g id="Cloud">
<path id="Cloud_Base" d="M47.3333 27C50.0969 27 52.3333 29.2364 52.3333 32C52.3333 33.1527 51.9213 34.2096 51.242 35.0359C52.9238 36.1989 54 38.0772 54 40.1667C54 44.0264 50.8597 47.1667 47 47.1667H19.5C14.2533 47.1667 10 42.9133 10 37.6667C10 32.7483 13.9168 28.7188 18.7501 28.5L18.75 28.5C19.043 28.5 19.3335 28.5034 19.6223 28.5101C20.6725 24.3146 24.5901 21 29 21C34.4568 21 38.9959 25.1011 39.5492 30.4072C40.6385 28.7712 42.508 27.75 44.5833 27.75C46.3333 27.75 47.7917 28.875 48.4583 30.5L48.4583 30.5C49.1917 28.7083 50.3333 27 52.3333 27L47.3333 27Z" fill="#36454F"/>
<path id="Cloud_Highlight" d="M47.3333 27C50.0969 27 52.3333 29.2364 52.3333 32C52.3333 33.1527 51.9213 34.2096 51.242 35.0359C52.9238 36.1989 54 38.0772 54 40.1667C54 44.0264 50.8597 47.1667 47 47.1667H19.5C14.2533 47.1667 10 42.9133 10 37.6667C10 32.7483 13.9168 28.7188 18.7501 28.5L18.75 28.5C19.043 28.5 19.3335 28.5034 19.6223 28.5101C20.6725 24.3146 24.5901 21 29 21C34.4568 21 38.9959 25.1011 39.5492 30.4072C40.6385 28.7712 42.508 27.75 44.5833 27.75C46.3333 27.75 47.7917 28.875 48.4583 30.5L48.4583 30.5C49.1917 28.7083 50.3333 27 52.3333 27Z" fill="#3D505B"/>
</g>
<g id="Arrows">
<path id="Arrow_Up" d="M32.0001 27.3333L32.0001 41.5M32.0001 27.3333L27.6667 31.6667M32.0001 27.3333L36.3334 31.6667" stroke="#00BFFF" stroke-width="2" stroke-linecap="round" stroke-linejoin="round"/>
<path id="Arrow_Down" d="M32.0001 41.6667L32.0001 27.5M32.0001 41.6667L27.6667 37.3333M32.0001 41.6667L36.3334 37.3333" stroke="#00BFFF" stroke-width="2" stroke-linecap="round" stroke-linejoin="round"/>
</g>
</svg>